<svg width="100" height="50" viewBox="0 0 100 50" fill="none" xmlns="http://www.w3.org/2000/svg">
<rect x="2" y="3" width="96" height="44" rx="22" fill="#1EEE0C" fill-opacity="0.26"/>
<path d="M24.5 34V16.675H36.2V19.95H28.4V23.35H35.325V26.55H28.4V30.725H36.775V34H24.5ZM44.1432 31.4C44.5098 31.4 44.8598 31.3917 45.1932 31.375C45.5265 31.3583 45.7932 31.3333 45.9932 31.3V28.475C45.8432 28.4417 45.6182 28.4083 45.3182 28.375C45.0182 28.3417 44.7432 28.325 44.4932 28.325C44.1432 28.325 43.8098 28.35 43.4932 28.4C43.1932 28.4333 42.9265 28.5083 42.6932 28.625C42.4598 28.7417 42.2765 28.9 42.1432 29.1C42.0098 29.3 41.9432 29.55 41.9432 29.85C41.9432 30.4333 42.1348 30.8417 42.5182 31.075C42.9182 31.2917 43.4598 31.4 44.1432 31.4ZM43.8432 20.5C44.9432 20.5 45.8598 20.625 46.5932 20.875C47.3265 21.125 47.9098 21.4833 48.3432 21.95C48.7932 22.4167 49.1098 22.9833 49.2932 23.65C49.4765 24.3167 49.5682 25.0583 49.5682 25.875V33.625C49.0348 33.7417 48.2932 33.875 47.3432 34.025C46.3932 34.1917 45.2432 34.275 43.8932 34.275C43.0432 34.275 42.2682 34.2 41.5682 34.05C40.8848 33.9 40.2932 33.6583 39.7932 33.325C39.2932 32.975 38.9098 32.525 38.6432 31.975C38.3765 31.425 38.2432 30.75 38.2432 29.95C38.2432 29.1833 38.3932 28.5333 38.6932 28C39.0098 27.4667 39.4265 27.0417 39.9432 26.725C40.4598 26.4083 41.0515 26.1833 41.7182 26.05C42.3848 25.9 43.0765 25.825 43.7932 25.825C44.2765 25.825 44.7015 25.85 45.0682 25.9C45.4515 25.9333 45.7598 25.9833 45.9932 26.05V25.7C45.9932 25.0667 45.8015 24.5583 45.4182 24.175C45.0348 23.7917 44.3682 23.6 43.4182 23.6C42.7848 23.6 42.1598 23.65 41.5432 23.75C40.9265 23.8333 40.3932 23.9583 39.9432 24.125L39.4682 21.125C39.6848 21.0583 39.9515 20.9917 40.2682 20.925C40.6015 20.8417 40.9598 20.775 41.3432 20.725C41.7265 20.6583 42.1265 20.6083 42.5432 20.575C42.9765 20.525 43.4098 20.5 43.8432 20.5ZM56.7115 31.325C57.3949 31.325 57.8782 31.2583 58.1615 31.125C58.4449 30.9917 58.5865 30.7333 58.5865 30.35C58.5865 30.05 58.4032 29.7917 58.0365 29.575C57.6699 29.3417 57.1115 29.0833 56.3615 28.8C55.7782 28.5833 55.2449 28.3583 54.7615 28.125C54.2949 27.8917 53.8949 27.6167 53.5615 27.3C53.2282 26.9667 52.9699 26.575 52.7865 26.125C52.6032 25.675 52.5115 25.1333 52.5115 24.5C52.5115 23.2667 52.9699 22.2917 53.8865 21.575C54.8032 20.8583 56.0615 20.5 57.6615 20.5C58.4615 20.5 59.2282 20.575 59.9615 20.725C60.6949 20.8583 61.2782 21.0083 61.7115 21.175L61.0615 24.075C60.6282 23.925 60.1532 23.7917 59.6365 23.675C59.1365 23.5583 58.5699 23.5 57.9365 23.5C56.7699 23.5 56.1865 23.825 56.1865 24.475C56.1865 24.625 56.2115 24.7583 56.2615 24.875C56.3115 24.9917 56.4115 25.1083 56.5615 25.225C56.7115 25.325 56.9115 25.4417 57.1615 25.575C57.4282 25.6917 57.7615 25.825 58.1615 25.975C58.9782 26.275 59.6532 26.575 60.1865 26.875C60.7199 27.1583 61.1365 27.475 61.4365 27.825C61.7532 28.1583 61.9699 28.5333 62.0865 28.95C62.2199 29.3667 62.2865 29.85 62.2865 30.4C62.2865 31.7 61.7949 32.6833 60.8115 33.35C59.8449 34.0167 58.4699 34.35 56.6865 34.35C55.5199 34.35 54.5449 34.25 53.7615 34.05C52.9949 33.85 52.4615 33.6833 52.1615 33.55L52.7865 30.525C53.4199 30.775 54.0699 30.975 54.7365 31.125C55.4032 31.2583 56.0615 31.325 56.7115 31.325ZM76.7453 20.85C75.9953 23.3833 75.212 25.7583 74.3953 27.975C73.5786 30.1917 72.687 32.3417 71.7203 34.425C71.3703 35.175 71.0203 35.8083 70.6703 36.325C70.3203 36.8583 69.937 37.2917 69.5203 37.625C69.1036 37.975 68.6286 38.225 68.0953 38.375C67.5786 38.5417 66.9703 38.625 66.2703 38.625C65.687 38.625 65.1453 38.5667 64.6453 38.45C64.162 38.35 63.762 38.2333 63.4453 38.1L64.0953 35.125C64.4786 35.2583 64.8203 35.35 65.1203 35.4C65.4203 35.45 65.737 35.475 66.0703 35.475C66.737 35.475 67.2453 35.2917 67.5953 34.925C67.962 34.575 68.2703 34.0833 68.5203 33.45C67.6703 31.7833 66.8203 29.9167 65.9703 27.85C65.1203 25.7667 64.3203 23.4333 63.5703 20.85H67.5203C67.687 21.5 67.8786 22.2083 68.0953 22.975C68.3286 23.725 68.5703 24.4917 68.8203 25.275C69.0703 26.0417 69.3203 26.7917 69.5703 27.525C69.837 28.2583 70.087 28.925 70.3203 29.525C70.537 28.925 70.762 28.2583 70.9953 27.525C71.2286 26.7917 71.4536 26.0417 71.6703 25.275C71.9036 24.4917 72.1203 23.725 72.3203 22.975C72.537 22.2083 72.7286 21.5 72.8953 20.85H76.7453Z" fill="#1EEE0C"/>
</svg>
