<svg width="100" height="50" viewBox="0 0 100 50" fill="none" xmlns="http://www.w3.org/2000/svg">
<rect x="2" y="3" width="96" height="44" rx="22" fill="#EE350C" fill-opacity="0.26"/>
<path d="M33.45 16.675H37.35V34H33.45V26.65H26.9V34H23V16.675H26.9V23.3H33.45V16.675ZM46.1344 31.4C46.501 31.4 46.851 31.3917 47.1844 31.375C47.5177 31.3583 47.7844 31.3333 47.9844 31.3V28.475C47.8344 28.4417 47.6094 28.4083 47.3094 28.375C47.0094 28.3417 46.7344 28.325 46.4844 28.325C46.1344 28.325 45.801 28.35 45.4844 28.4C45.1844 28.4333 44.9177 28.5083 44.6844 28.625C44.451 28.7417 44.2677 28.9 44.1344 29.1C44.001 29.3 43.9344 29.55 43.9344 29.85C43.9344 30.4333 44.126 30.8417 44.5094 31.075C44.9094 31.2917 45.451 31.4 46.1344 31.4ZM45.8344 20.5C46.9344 20.5 47.851 20.625 48.5844 20.875C49.3177 21.125 49.901 21.4833 50.3344 21.95C50.7844 22.4167 51.101 22.9833 51.2844 23.65C51.4677 24.3167 51.5594 25.0583 51.5594 25.875V33.625C51.026 33.7417 50.2844 33.875 49.3344 34.025C48.3844 34.1917 47.2344 34.275 45.8844 34.275C45.0344 34.275 44.2594 34.2 43.5594 34.05C42.876 33.9 42.2844 33.6583 41.7844 33.325C41.2844 32.975 40.901 32.525 40.6344 31.975C40.3677 31.425 40.2344 30.75 40.2344 29.95C40.2344 29.1833 40.3844 28.5333 40.6844 28C41.001 27.4667 41.4177 27.0417 41.9344 26.725C42.451 26.4083 43.0427 26.1833 43.7094 26.05C44.376 25.9 45.0677 25.825 45.7844 25.825C46.2677 25.825 46.6927 25.85 47.0594 25.9C47.4427 25.9333 47.751 25.9833 47.9844 26.05V25.7C47.9844 25.0667 47.7927 24.5583 47.4094 24.175C47.026 23.7917 46.3594 23.6 45.4094 23.6C44.776 23.6 44.151 23.65 43.5344 23.75C42.9177 23.8333 42.3844 23.9583 41.9344 24.125L41.4594 21.125C41.676 21.0583 41.9427 20.9917 42.2594 20.925C42.5927 20.8417 42.951 20.775 43.3344 20.725C43.7177 20.6583 44.1177 20.6083 44.5344 20.575C44.9677 20.525 45.401 20.5 45.8344 20.5ZM62.8527 24.15C62.5194 24.0667 62.1277 23.9833 61.6777 23.9C61.2277 23.8 60.7444 23.75 60.2277 23.75C59.9944 23.75 59.7111 23.775 59.3777 23.825C59.0611 23.8583 58.8194 23.9 58.6527 23.95V34H54.9277V21.55C55.5944 21.3167 56.3777 21.1 57.2777 20.9C58.1944 20.6833 59.2111 20.575 60.3277 20.575C60.5277 20.575 60.7694 20.5917 61.0527 20.625C61.3361 20.6417 61.6194 20.675 61.9027 20.725C62.1861 20.7583 62.4694 20.8083 62.7527 20.875C63.0361 20.925 63.2777 20.9917 63.4777 21.075L62.8527 24.15ZM68.4055 27.325C68.4055 28.475 68.6638 29.4 69.1805 30.1C69.6971 30.8 70.4638 31.15 71.4805 31.15C71.8138 31.15 72.1221 31.1417 72.4055 31.125C72.6888 31.0917 72.9221 31.0583 73.1055 31.025V24.25C72.8721 24.1 72.5638 23.975 72.1805 23.875C71.8138 23.775 71.4388 23.725 71.0555 23.725C69.2888 23.725 68.4055 24.925 68.4055 27.325ZM76.8305 33.575C76.4971 33.675 76.1138 33.775 75.6805 33.875C75.2471 33.9583 74.7888 34.0333 74.3055 34.1C73.8388 34.1667 73.3555 34.2167 72.8555 34.25C72.3721 34.3 71.9055 34.325 71.4555 34.325C70.3721 34.325 69.4055 34.1667 68.5555 33.85C67.7055 33.5333 66.9888 33.0833 66.4055 32.5C65.8221 31.9 65.3721 31.1833 65.0555 30.35C64.7555 29.5 64.6055 28.55 64.6055 27.5C64.6055 26.4333 64.7388 25.475 65.0055 24.625C65.2721 23.7583 65.6555 23.025 66.1555 22.425C66.6555 21.825 67.2638 21.3667 67.9805 21.05C68.7138 20.7333 69.5471 20.575 70.4805 20.575C70.9971 20.575 71.4555 20.625 71.8555 20.725C72.2721 20.825 72.6888 20.9667 73.1055 21.15V15.2L76.8305 14.6V33.575Z" fill="#EE350C"/>
</svg>
