<svg width="120" height="50" viewBox="0 0 120 50" fill="none" xmlns="http://www.w3.org/2000/svg">
<rect x="2" y="3" width="116" height="44" rx="22" fill="#F6B02A" fill-opacity="0.26"/>
<path d="M18.6 16.675C18.9 17.225 19.2417 17.9083 19.625 18.725C20.025 19.525 20.4333 20.4 20.85 21.35C21.2833 22.2833 21.7083 23.2417 22.125 24.225C22.5417 25.2083 22.9333 26.1333 23.3 27C23.6667 26.1333 24.0583 25.2083 24.475 24.225C24.8917 23.2417 25.3083 22.2833 25.725 21.35C26.1583 20.4 26.5667 19.525 26.95 18.725C27.35 17.9083 27.7 17.225 28 16.675H31.55C31.7167 17.825 31.8667 19.1167 32 20.55C32.15 21.9667 32.275 23.45 32.375 25C32.4917 26.5333 32.5917 28.075 32.675 29.625C32.775 31.175 32.8583 32.6333 32.925 34H29.125C29.075 32.3167 29.0083 30.4833 28.925 28.5C28.8417 26.5167 28.7167 24.5167 28.55 22.5C28.25 23.2 27.9167 23.975 27.55 24.825C27.1833 25.675 26.8167 26.525 26.45 27.375C26.1 28.225 25.7583 29.0417 25.425 29.825C25.0917 30.5917 24.8083 31.25 24.575 31.8H21.85C21.6167 31.25 21.3333 30.5917 21 29.825C20.6667 29.0417 20.3167 28.225 19.95 27.375C19.6 26.525 19.2417 25.675 18.875 24.825C18.5083 23.975 18.175 23.2 17.875 22.5C17.7083 24.5167 17.5833 26.5167 17.5 28.5C17.4167 30.4833 17.35 32.3167 17.3 34H13.5C13.5667 32.6333 13.6417 31.175 13.725 29.625C13.825 28.075 13.925 26.5333 14.025 25C14.1417 23.45 14.2667 21.9667 14.4 20.55C14.55 19.1167 14.7083 17.825 14.875 16.675H18.6ZM35.5615 27.525C35.5615 26.3583 35.7365 25.3417 36.0865 24.475C36.4532 23.5917 36.9282 22.8583 37.5115 22.275C38.0949 21.6917 38.7615 21.25 39.5115 20.95C40.2782 20.65 41.0615 20.5 41.8615 20.5C43.7282 20.5 45.2032 21.075 46.2865 22.225C47.3699 23.3583 47.9115 25.0333 47.9115 27.25C47.9115 27.4667 47.9032 27.7083 47.8865 27.975C47.8699 28.225 47.8532 28.45 47.8365 28.65H39.3865C39.4699 29.4167 39.8282 30.025 40.4615 30.475C41.0949 30.925 41.9449 31.15 43.0115 31.15C43.6949 31.15 44.3615 31.0917 45.0115 30.975C45.6782 30.8417 46.2199 30.6833 46.6365 30.5L47.1365 33.525C46.9365 33.625 46.6699 33.725 46.3365 33.825C46.0032 33.925 45.6282 34.0083 45.2115 34.075C44.8115 34.1583 44.3782 34.225 43.9115 34.275C43.4449 34.325 42.9782 34.35 42.5115 34.35C41.3282 34.35 40.2949 34.175 39.4115 33.825C38.5449 33.475 37.8199 33 37.2365 32.4C36.6699 31.7833 36.2449 31.0583 35.9615 30.225C35.6949 29.3917 35.5615 28.4917 35.5615 27.525ZM44.3115 26.1C44.2949 25.7833 44.2365 25.475 44.1365 25.175C44.0532 24.875 43.9115 24.6083 43.7115 24.375C43.5282 24.1417 43.2865 23.95 42.9865 23.8C42.7032 23.65 42.3449 23.575 41.9115 23.575C41.4949 23.575 41.1365 23.65 40.8365 23.8C40.5365 23.9333 40.2865 24.1167 40.0865 24.35C39.8865 24.5833 39.7282 24.8583 39.6115 25.175C39.5115 25.475 39.4365 25.7833 39.3865 26.1H44.3115ZM53.9611 27.325C53.9611 28.475 54.2195 29.4 54.7361 30.1C55.2528 30.8 56.0195 31.15 57.0361 31.15C57.3695 31.15 57.6778 31.1417 57.9611 31.125C58.2445 31.0917 58.4778 31.0583 58.6611 31.025V24.25C58.4278 24.1 58.1195 23.975 57.7361 23.875C57.3695 23.775 56.9945 23.725 56.6111 23.725C54.8445 23.725 53.9611 24.925 53.9611 27.325ZM62.3861 33.575C62.0528 33.675 61.6695 33.775 61.2361 33.875C60.8028 33.9583 60.3445 34.0333 59.8611 34.1C59.3945 34.1667 58.9111 34.2167 58.4111 34.25C57.9278 34.3 57.4611 34.325 57.0111 34.325C55.9278 34.325 54.9611 34.1667 54.1111 33.85C53.2611 33.5333 52.5445 33.0833 51.9611 32.5C51.3778 31.9 50.9278 31.1833 50.6111 30.35C50.3111 29.5 50.1611 28.55 50.1611 27.5C50.1611 26.4333 50.2945 25.475 50.5611 24.625C50.8278 23.7583 51.2111 23.025 51.7111 22.425C52.2111 21.825 52.8195 21.3667 53.5361 21.05C54.2695 20.7333 55.1028 20.575 56.0361 20.575C56.5528 20.575 57.0111 20.625 57.4111 20.725C57.8278 20.825 58.2445 20.9667 58.6611 21.15V15.2L62.3861 14.6V33.575ZM69.599 34H65.874V20.85H69.599V34ZM69.949 17.05C69.949 17.7333 69.724 18.275 69.274 18.675C68.8407 19.0583 68.324 19.25 67.724 19.25C67.124 19.25 66.599 19.0583 66.149 18.675C65.7157 18.275 65.499 17.7333 65.499 17.05C65.499 16.3667 65.7157 15.8333 66.149 15.45C66.599 15.05 67.124 14.85 67.724 14.85C68.324 14.85 68.8407 15.05 69.274 15.45C69.724 15.8333 69.949 16.3667 69.949 17.05ZM84.3256 33.55C83.6923 33.7333 82.8756 33.9 81.8756 34.05C80.8756 34.2167 79.8256 34.3 78.7256 34.3C77.6089 34.3 76.6756 34.15 75.9256 33.85C75.1923 33.55 74.6089 33.1333 74.1756 32.6C73.7423 32.05 73.4339 31.4 73.2506 30.65C73.0673 29.9 72.9756 29.075 72.9756 28.175V20.85H76.7006V27.725C76.7006 28.925 76.8589 29.7917 77.1756 30.325C77.4923 30.8583 78.0839 31.125 78.9506 31.125C79.2173 31.125 79.5006 31.1167 79.8006 31.1C80.1006 31.0667 80.3673 31.0333 80.6006 31V20.85H84.3256V33.55ZM95.0473 27.025C95.0473 25.825 94.8889 24.975 94.5723 24.475C94.2723 23.975 93.7473 23.725 92.9973 23.725C92.7639 23.725 92.5223 23.7417 92.2723 23.775C92.0223 23.7917 91.7806 23.8167 91.5473 23.85V34H87.8223V21.3C88.1389 21.2167 88.5056 21.1333 88.9223 21.05C89.3556 20.95 89.8056 20.8667 90.2723 20.8C90.7556 20.7167 91.2473 20.6583 91.7473 20.625C92.2473 20.575 92.7389 20.55 93.2223 20.55C94.1723 20.55 94.9389 20.675 95.5223 20.925C96.1223 21.1583 96.6139 21.4417 96.9973 21.775C97.5306 21.3917 98.1389 21.0917 98.8223 20.875C99.5223 20.6583 100.164 20.55 100.747 20.55C101.797 20.55 102.656 20.7 103.322 21C104.006 21.2833 104.547 21.6917 104.947 22.225C105.347 22.7583 105.622 23.3917 105.772 24.125C105.922 24.8583 105.997 25.675 105.997 26.575V34H102.272V27.025C102.272 25.825 102.114 24.975 101.797 24.475C101.497 23.975 100.972 23.725 100.222 23.725C100.022 23.725 99.7389 23.775 99.3723 23.875C99.0223 23.975 98.7306 24.1 98.4973 24.25C98.6139 24.6333 98.6889 25.0417 98.7223 25.475C98.7556 25.8917 98.7723 26.3417 98.7723 26.825V34H95.0473V27.025Z" fill="#F6B02A"/>
</svg>
